Coordinates
version=1
nRows=13
nColumns=22
inDegrees=yes

Units are S.I. units (second, meters, Newtons, ...)
If the header above contains a line with 'inDegrees', this indicates whether rotational values are in degrees (yes) or radians (no).

endheader
time	pelvis_tilt	pelvis_list	pelvis_rotation	pelvis_tx	pelvis_ty	pelvis_tz	hip_flexion_r	hip_adduction_r	hip_rotation_r	knee_angle_r	ankle_angle_r	subtalar_angle_r	hip_flexion_l	hip_adduction_l	hip_rotation_l	knee_angle_l	ankle_angle_l	subtalar_angle_l	lumbar_extension	lumbar_bending	lumbar_rotation
      0.01000000	     -6.50924258	     -0.77079384	    -15.66865262	     -1.03524831	      0.88627521	     -0.48693439	      8.49530709	     -3.47504943	      2.61869202	     -9.78099719	     10.74972837	     -0.68728063	      2.24620161	     -5.18516135	    -13.43485085	     -8.52079457	     14.80509168	      6.07205600	      1.93099228	      1.31275483	      9.14126682
      0.02000000	     -6.50747754	     -0.75885553	    -15.70286079	     -1.03517813	      0.88627322	     -0.48676696	      8.49524033	     -3.47885969	      2.60847431	     -9.78136977	     10.75232608	     -0.69073769	      2.23651748	     -5.17971654	    -13.45520104	     -8.52667395	     14.80091447	      6.07344462	      1.94738704	      1.32145917	      9.11758224
      0.03000000	     -6.50896157	     -0.75406388	    -15.74067134	     -1.03510487	      0.88626918	     -0.48655997	      8.49304550	     -3.47058552	      2.61224766	     -9.77444974	     10.76171991	     -0.69331714	      2.22856525	     -5.18600184	    -13.47901526	     -8.53786215	     14.80518460	      6.07198042	      1.96648406	      1.34097472	      9.09085810
      0.04000000	     -6.51213794	     -0.76161864	    -15.78059917	     -1.03499699	      0.88626717	     -0.48631974	      8.48161264	     -3.44669284	      2.63411843	     -9.76280046	     10.77184239	     -0.69650108	      2.21985552	     -5.20864778	    -13.51450754	     -8.55812054	     14.82199284	      6.06729423	      1.98992149	      1.37589830	      9.06020217
      0.05000000	     -6.51276289	     -0.78149315	    -15.82493070	     -1.03489429	      0.88627406	     -0.48605700	      8.46061889	     -3.40846307	      2.66598587	     -9.74223229	     10.77269241	     -0.70159561	      2.20864963	     -5.24668606	    -13.55000909	     -8.58862089	     14.85171647	      6.06106116	      2.00625189	      1.42426928	      9.03695294
      0.06000000	     -6.50919641	     -0.80474982	    -15.86846247	     -1.03478134	      0.88629104	     -0.48578842	      8.43090459	     -3.36738085	      2.69518873	     -9.71702678	     10.76463468	     -0.70939149	      2.19072803	     -5.28699223	    -13.58084315	     -8.61833393	     14.88298598	      6.05641127	      2.01732181	      1.47493624	      9.01711419
      0.07000000	     -6.50373766	     -0.79578033	    -15.90317897	     -1.03467386	      0.88629938	     -0.48555057	      8.42259111	     -3.36418135	      2.69234770	     -9.71701693	     10.76425421	     -0.71008530	      2.17651258	     -5.28878696	    -13.57394754	     -8.63575713	     14.88338800	      6.05644769	      2.03580541	      1.48773360	      9.00764221
      0.08000000	     -6.49215271	     -0.85746956	    -15.96279833	     -1.03459079	      0.88634223	     -0.48523765	      8.35967504	     -3.27945881	      2.75596469	     -9.65954756	     10.74612727	     -0.72758546	      2.14432072	     -5.37431410	    -13.62989659	     -8.68101389	     14.94408643	      6.05088493	      2.01956957	      1.57871506	      9.00712736
      0.09000000	     -6.47851234	     -0.88053874	    -16.01254783	     -1.03451957	      0.88637195	     -0.48495539	      8.32341236	     -3.23884252	      2.79657482	     -9.63439284	     10.73408814	     -0.74639951	      2.11424074	     -5.41382592	    -13.65412648	     -8.70636045	     14.97052466	      6.05514581	      2.01239198	      1.62448999	      8.99979256
      0.10000000	     -6.46848003	     -0.89223494	    -16.05914815	     -1.03448480	      0.88638678	     -0.48469160	      8.30771286	     -3.20977039	      2.84037282	     -9.63262859	     10.73782109	     -0.75500268	      2.09424507	     -5.44170939	    -13.66133430	     -8.73057184	     14.98693465	      6.05653766	      2.00659057	      1.66028664	      8.98769297
      0.11000000	     -6.45764842	     -0.91073209	    -16.11494800	     -1.03448712	      0.88640059	     -0.48440103	      8.29173255	     -3.17069239	      2.89066781	     -9.62813762	     10.74206686	     -0.76525602	      2.07651553	     -5.48090004	    -13.67623249	     -8.76566467	     15.01429393	      6.05688135	      1.99346489	      1.70074356	      9.00942328
      0.12000000	     -6.44626392	     -0.92315071	    -16.16945879	     -1.03451322	      0.88641076	     -0.48410732	      8.28550308	     -3.13695636	      2.94804160	     -9.63752892	     10.74426844	     -0.77598348	      2.05984743	     -5.51419702	    -13.69612849	     -8.79738486	     15.04086701	      6.05767657	      1.97670979	      1.73523562	      9.01653548
      0.13000000	     -6.43490059	     -0.93385549	    -16.22314099	     -1.03457717	      0.88641613	     -0.48381361	      8.28635668	     -3.10495521	      3.00447647	     -9.65370955	     10.75585853	     -0.78644755	      2.04856374	     -5.54727928	    -13.70617612	     -8.83366628	     15.06446574	      6.05859625	      1.95262331	      1.76675661	      9.04019267
